<?xml version="1.0" encoding="utf-8"?>
<!-- Generator: Adobe Illustrator 16.0.0, SVG Export Plug-In . SVG Version: 6.00 Build 0)  -->
<!DOCTYPE svg PUBLIC "-//W3C//DTD SVG 1.1//EN" "http://www.w3.org/Graphics/SVG/1.1/DTD/svg11.dtd">
<svg version="1.1" id="Layer_1" xmlns="http://www.w3.org/2000/svg" xmlns:xlink="http://www.w3.org/1999/xlink" x="0px" y="0px"
	 width="134.349px" height="25.865px" viewBox="0 0 134.349 25.865" enable-background="new 0 0 134.349 25.865"
	 xml:space="preserve">
<g>
	<path fill="#549B3E" d="M107.425,6.173c-5.437,0-9.845,4.409-9.845,9.847c0,5.436,4.408,9.845,9.845,9.845
		c1.795,0,3.477-0.481,4.926-1.321v1.322h4.922v-9.847C117.272,10.581,112.864,6.173,107.425,6.173z M112.349,16.019v0.049
		c-0.026,2.696-2.22,4.874-4.924,4.874c-2.719,0-4.922-2.204-4.922-4.923c0-2.718,2.203-4.923,4.922-4.923
		C110.146,11.095,112.349,13.3,112.349,16.019L112.349,16.019z"/>
	<path fill="#549B3E" d="M36.573,20.568c-0.498,0.238-1.054,0.374-1.644,0.374c-2.114,0-3.829-1.715-3.829-3.829h0v-6.016
		l3.728-0.001c0,0,0.617-2.169,0.617-4.922l-4.344,0v-5.76c-2.752,0-4.923,0.728-4.923,0.728s0.001,2.958,0,5.03h0v10.931
		c0,0.003,0,0.006,0,0.01c0,4.832,3.918,8.751,8.751,8.751c1.654,0,3.201-0.46,4.52-1.259C38.22,23.492,37.232,22.117,36.573,20.568
		z"/>
	<path fill="#549B3E" d="M99.696,7.432c-1.318-0.798-2.865-1.259-4.521-1.259c-4.833,0-8.751,3.919-8.751,8.751
		c0,0.004,0,0.007,0,0.01v10.931h4.924v-10.94l0,0c0-2.114,1.714-3.829,3.827-3.829c0.59,0,1.147,0.136,1.646,0.374
		C97.479,9.92,98.468,8.545,99.696,7.432z"/>
	<circle fill="#549B3E" cx="2.691" cy="2.691" r="2.691"/>
	<path fill="#549B3E" d="M15.762,6.174c-4.833,0-8.752,3.918-8.752,8.75c0,0.004,0,0.007,0,0.01v10.932h4.923V14.924l0,0
		c0-2.114,1.714-3.829,3.828-3.829c2.115,0,3.829,1.714,3.829,3.829v10.941h4.923V14.924C24.514,10.092,20.596,6.174,15.762,6.174z"
		/>
	<path fill="#549B3E" d="M0.23,25.865h4.923V6.174c-2.753,0-4.923,0.728-4.923,0.728V25.865z"/>
	<path fill="#549B3E" d="M58.234,25.864h4.923V0.415c-2.694,0.001-4.832,0.697-4.919,0.726L58.234,25.864z"/>
	<path fill="#549B3E" d="M74.993,6.173c-1.795,0-3.475,0.482-4.922,1.321l-0.002-7.079c-2.697,0.001-4.838,0.7-4.919,0.726
		c0,0-0.004,14.866-0.004,14.879c0,5.436,4.409,9.845,9.847,9.845s9.846-4.409,9.846-9.845C84.839,10.582,80.431,6.173,74.993,6.173
		z M74.993,20.941c-2.719,0-4.924-2.205-4.924-4.923h0.002v-0.037c0.02-2.702,2.215-4.886,4.922-4.886
		c2.719,0,4.924,2.205,4.924,4.923C79.917,18.736,77.712,20.941,74.993,20.941z"/>
	<path fill="#549B3E" d="M56.739,18.35c-2.539-1.008-4.76-1.08-4.76-1.08c-0.616,2.37-2.916,3.965-5.406,3.637
		c-0.56-0.073-1.084-0.239-1.562-0.479l11.135-8.544c-1.373-2.952-4.179-5.161-7.646-5.618c-5.39-0.709-10.333,3.085-11.043,8.474
		c-0.709,5.39,3.084,10.333,8.474,11.042C50.911,26.438,55.51,23.092,56.739,18.35L56.739,18.35z M42.333,15.381
		c0.355-2.697,2.83-4.595,5.526-4.24c0.56,0.074,1.084,0.24,1.562,0.479l-7.029,5.394C42.283,16.49,42.259,15.941,42.333,15.381z"/>
	<path fill="#549B3E" d="M128.361,13.892l-3.239-0.003c-0.771,0-1.396-0.625-1.396-1.397s0.625-1.397,1.396-1.397h7.072
		c0.029-0.088,0.726-2.208,0.727-4.901c0,0-7.66-0.001-8.131-0.001c-3.307,0-5.987,2.68-5.987,5.987
		c0,3.305,2.681,5.989,5.987,5.989h3.238c0.771,0,1.396,0.625,1.396,1.396s-0.625,1.396-1.396,1.396h-8.023
		c-0.029,0.088-0.725,2.209-0.726,4.901c0,0,8.964,0.001,9.082,0.001c3.306,0,5.987-2.68,5.987-5.987
		C134.349,16.571,131.667,13.892,128.361,13.892z"/>
</g>
<g>
</g>
<g>
</g>
<g>
</g>
<g>
</g>
<g>
</g>
<g>
</g>
</svg>
